<svg version="1.2" xmlns="http://www.w3.org/2000/svg" viewBox="0 0 830 802" width="150" height="144.93975903614458"><style>.a{fill:#ce2c1f}</style><path class="a" d="m390.2 4.2c-0.6 2.4-2.1 8-3.3 12.5-1.5 5.8-2.5 8-3.4 7.7-0.7-0.3-3.2-5.1-5.4-10.7-2.3-5.6-4.6-10.9-5.1-11.7-1.7-2.7-3 0.4-5 11.8-1 6.2-2.2 11.7-2.5 12.2-1.2 1.9-2.7-0.3-8.1-11.8-4.1-8.6-5.7-11.3-6.6-10.4-0.6 0.6-1.7 5.9-2.4 11.7-1.7 13.6-2.1 15-4.1 13.4-0.8-0.7-3.4-5.1-5.8-9.8-2.4-4.8-5-9.5-5.8-10.6-1.5-2-1.6-2-2.5 0.5-0.5 1.4-1.2 7-1.5 12.4-0.7 9.7-1.5 12.5-3.5 11.2-0.6-0.3-3.6-5.1-6.8-10.6-3.2-5.5-6.3-10-7-10-0.8 0-1.3 3.7-1.6 12.5-0.2 6.8-0.7 12.7-1.1 13.1-1.1 1.2-3.5-1.5-9.4-10.5-5.4-8.3-7.2-10.5-8.2-9.5-0.3 0.2-0.4 6.1-0.2 12.9 0.2 11.5 0.1 12.5-1.6 12.5-1.1 0-4.3-3.6-8.3-9.2-3.6-5.1-7.1-9.4-7.9-9.6-1.1-0.4-1.2 1.8-0.6 12.7 0.4 7.8 0.4 13.1-0.2 13.1-1.6 0-3.8-2.2-9.5-9.5-9.9-12.6-10.5-12.3-8.3 3.6 2 14.2 1.3 15.6-4.6 9.3-2.4-2.6-6.5-7.1-9.1-9.8-2.5-2.8-5-4.7-5.4-4.3-0.4 0.4 0.2 6 1.4 12.5 1.2 6.4 2.2 12.3 2.2 12.9 0 2.8-2.8 0.9-11.4-8-10.5-10.7-11.1-10.4-7.7 4.2 1.2 4.9 2.1 10 2.1 11.5 0 2.4-0.2 2.5-2 1.6-1.1-0.6-5.7-4.5-10.2-8.8-7.4-6.9-8.3-7.5-8.6-5.4-0.2 1.2 0.8 6.2 2.2 11 2.9 9.6 3.2 13.2 1.4 13.2-0.7 0-4.4-2.8-8.3-6.1-8.5-7.4-11.3-9.4-12.2-8.5-0.4 0.4 1 5.8 3.1 12.1 2 6.3 3.4 11.9 3.1 12.5-0.9 1.4-2.7 0.3-12.5-7.5-4.6-3.6-8.7-6.5-9.2-6.5-1.5 0-0.8 3 3.2 13.1 6.1 15.3 5.7 15.7-6.5 7-14.9-10.6-15.6-10.3-9.1 3.5 2.5 5.3 4.6 10.7 4.6 12.1 0 2.3 0 2.3-3.3 0.7-1.7-0.9-5.8-3.4-8.9-5.6-3.1-2.1-6.9-4.3-8.3-4.8-2.2-0.8-2.5-0.7-2.5 1 0 1.1 2 5.7 4.4 10.3 8 14.9 7.5 15.5-6.7 7.2-5.1-3-9.9-5.5-10.5-5.5-2.1 0-1.3 3.5 2.4 9.6 3.9 6.4 7.4 13 7.4 13.9 0 1.4-3.9 0.1-12.9-4.5-5.4-2.8-10.4-5-11-5-2.2 0-1 3.1 4.9 11.8 6 9 7.2 12.2 4.6 12.2-0.7 0-5.6-2-10.8-4.5-13-6.1-15-6-10.5 0.6 1.3 1.9 4.5 6.5 7.2 10.4 4.3 6.3 4.6 7 2.8 7.3-1.2 0.2-5.9-1.2-10.5-3.1-16.4-6.6-17-6.1-7.3 6.3 8.4 10.6 9.2 12 6.6 12-1.1 0-6.7-1.6-12.6-3.6-5.9-1.9-10.9-3.4-11.1-3.1-1.1 1 1.8 5.6 6.9 11.4 6.3 7.1 8.1 9.9 6.8 10.7-0.5 0.3-4.7-0.5-9.2-1.8-11.8-3.4-15.9-4.1-15.9-2.6 0 0.6 3.6 4.9 8 9.5 11.3 11.8 11 12.6-3.9 9-11.3-2.8-14.1-3-14.1-1.4 0 0.6 3.8 4.7 8.5 9.2 12.1 11.5 11.7 12.1-6 8.7-15.1-2.8-15.1-2.4 1.3 12.1 6.9 6.2 6.8 7.4-0.5 6.5-3.2-0.4-9.1-0.9-13.2-1.3-8.9-0.7-9 0.1-1 6.5 12.6 10.1 13.5 11 11.9 12.2-0.8 0.5-2.4 0.8-3.5 0.6-1.1-0.3-6.4-0.8-11.7-1.2-12.3-0.9-12.8 0.4-3 7.2 7.5 5.3 12.2 9.4 12.2 10.6 0 0.4-5.8 0.8-13 0.8-7.3 0-13 0.4-13 0.9 0 1.3 4 4.4 13.3 10.2 4.2 2.6 7.7 5.2 7.7 5.7 0 1.6-4.1 2.2-15.2 2.2-5.9 0-10.9 0.4-11.3 0.9-0.7 1.2 4 4.7 12.6 9.4 8.7 4.8 10 6.3 6.4 7.7-1.4 0.5-5 1-7.8 1-8.6 0-15.7 1.2-15.7 2.5 0 0.7 4.9 3.8 11 7 6 3.2 11 6.1 11 6.6 0 1.6-4.2 2.7-14.2 3.8-15.3 1.5-15.2 2 0.8 9.7 6.3 3 11.2 5.9 10.9 6.3-0.5 1-5.8 2.2-16.6 4.1-12.3 2.2-11.9 3.4 3.3 9.5 5.6 2.2 10.3 4.6 10.6 5.2 0.5 1.6-2.9 2.9-12.5 4.9-7.9 1.6-12.3 3.2-12.3 4.5 0 0.7 5.8 3.1 15.6 6.3 6.3 2 9.3 4.1 7.9 5.4-0.5 0.5-6.3 2.6-12.7 4.7-6.5 2-11.8 4.1-11.8 4.5 0 0.5 5.5 2.6 12.2 4.7 8.4 2.6 12.3 4.3 12.3 5.3 0 1-3.9 2.9-11.4 5.5-6.3 2.2-11.6 4.6-11.8 5.2-0.5 1.3 6.3 3.5 15.5 5.3 2.9 0.5 6.1 1.4 7.2 2 3.9 2.1 3.8 2.1-16.6 10.5-3.7 1.5-5.1 3.4-3.4 4.5 0.7 0.4 4.7 1.3 8.9 2 10.4 1.7 15.1 2.9 15.1 4 0 1.5-3.8 3.7-12.1 7-8.1 3.3-12.4 6.5-9.8 7.4 0.8 0.3 6.5 1.2 12.8 2.1 6.3 0.8 11.7 1.8 12 2 0.9 1-2.3 3.4-10.4 7.7-11.9 6.4-12.1 6.5-11 7.7 0.6 0.5 4.2 1.3 8 1.6 14.3 1.2 17.5 1.7 17.5 2.6 0 0.5-1.9 2.1-4.2 3.5-13.6 8.6-17.9 11.6-17.3 12.2 0.4 0.4 6.1 0.9 12.8 1.2 14.7 0.6 15.3 1.5 5.7 7.8-9.8 6.4-13.1 9.2-12.4 10.4 0.4 0.6 4.8 0.9 11.3 0.8 5.8-0.1 11.7-0.2 13-0.1 2.4 0.1 2.4 0.1 0.5 2.2-1 1.1-5.2 4.4-9.4 7.3-4.1 2.9-8.1 6-8.9 6.9-2.1 2.7 0.5 3 13 1.7 16.2-1.7 16.3-1.2 1.6 10.8-4.2 3.4-7.7 6.7-7.7 7.3 0 0.8 2 1 6.5 0.5 24.4-2.3 23.7-3 9.8 9.3-4.6 4-8.3 7.6-8.3 8.2 0 1.3 5.5 1.1 13.5-0.6 8.6-1.8 12.5-1.9 12.5-0.3 0 0.7-3.8 4.9-8.5 9.3-12.1 11.4-11.7 12.1 5 8 5.5-1.4 10.6-2.5 11.3-2.5 2.5 0 1 2.7-5.3 9.5-7.7 8.2-10 11.3-9.1 12.2 0.3 0.4 5-0.6 10.4-2 14.4-4 15.2-4.1 15.2-2.7 0 0.7-2.1 3.8-4.7 6.8-8.9 10.2-11.4 13.5-10.5 14.4 0.4 0.4 5.5-0.8 11.2-2.7 5.7-1.9 11.4-3.5 12.7-3.5 2.3 0 2.3 0 0.6 2.7-1 1.6-4.4 6.1-7.5 10.1-5.9 7.5-7.3 10.9-4 9.9 0.9-0.3 6.4-2.3 12.2-4.5 11.7-4.6 13.3-4.1 8.7 2.6-1.4 2-4.4 6.3-6.6 9.6-2.3 3.2-4.1 6.3-4.1 6.7 0 1.7 2.8 0.9 11.3-3 10.4-4.9 13.7-5.8 13.7-3.9 0 0.8-2.7 5.7-6 10.8-6 9.4-6.8 11-5.1 11 0.5 0 8.6-4.5 18-10 77.2-45.1 152.7-70.1 237.6-78.6 20.7-2.1 69.6-2.4 89.5-0.5 50.3 4.6 98.7 15.5 144 32.3 35.5 13.2 73.1 31.4 106 51.3 5.2 3.1 9.8 5.9 10.3 6.2 2.1 1.3 0-3.4-5.3-11.7-6.1-9.4-7.1-12-4.7-12 0.7 0 5.7 2 11.2 4.5 15.1 6.8 15.5 6.3 6-7-3.6-4.9-6.5-9.6-6.5-10.2 0-2.2 3.8-1.5 12.3 2.2 7.9 3.4 12.7 4.4 12.7 2.6 0-0.5-3.1-4.9-7-9.8-3.8-4.8-7-9.4-7-10.1 0-1.9 2.8-1.5 14 2.3 5.7 1.9 10.8 3.5 11.2 3.5 1.8 0 0.5-2.3-5-8.7-13-15.3-12.9-15.8 2.5-11.4 6 1.7 11.4 3.1 12.1 3.1 2.5 0 1-2.4-6.8-10.8-4.4-4.8-8-9.2-8-10 0-1.5 2.7-1.1 15 1.9 13.9 3.5 14.2 2.4 2.5-8.7-4.7-4.5-8.5-8.7-8.5-9.3 0-1.5 4.1-1.3 12 0.4 7.4 1.6 14 1.9 14 0.6 0-0.4-4-4.5-9-9-4.9-4.6-9-8.7-9-9.3 0-0.7 2.2-0.8 6.3-0.4 24.7 2.4 24.2 2.8 9.5-8.8-4.9-3.8-8.8-7.3-8.8-7.7 0-1.6 3.5-1.8 13.7-0.8 5.9 0.5 11.3 0.7 12.1 0.4 2.1-0.8 0.2-2.8-8.9-9.1-8.2-5.8-10.6-8.1-9.5-9.1 0.4-0.4 6.3-0.6 13.1-0.4 15.6 0.3 16-0.5 3.7-8.3-4.9-3.1-9.6-6.4-10.6-7.5-1.5-1.7-1.5-1.9-0.1-2.5 0.9-0.3 6.5-0.6 12.3-0.6 5.9 0 11.3-0.4 12.1-0.9 1.6-1-2.2-4.1-12.1-9.5-3.6-2-7.1-4.3-7.8-5.1-1.7-2.1 1.8-3.5 9.2-3.6 8.6-0.1 15.1-1.2 15.5-2.6 0.3-0.7-3.3-3.1-8.4-5.6-9.4-4.8-14.2-8.1-13.2-9.2 0.4-0.3 5.8-1.3 12-2.1 6.3-0.8 12-1.6 12.7-1.9 3.2-1.2 0.6-2.9-13.9-9.3-6.4-2.8-8.7-4.7-7.5-5.9 0.3-0.3 5-1.4 10.3-2.4 13.6-2.6 14.3-2.8 14.3-4.3 0-0.7-2.1-2.1-4.7-3.1-10.3-3.8-18.4-7.8-18-8.9 0.4-1.3 4.7-2.7 16.2-5.3 5.6-1.3 8-2.2 8-3.3 0-1-2.8-2.5-8-4.3-11.4-3.9-15.6-5.9-15.2-7.1 0.4-1.2 3.6-2.4 14.2-5.5 12.7-3.7 12.6-4.2-1.6-8.8-7.7-2.5-12.4-4.5-12.4-5.4 0-0.7 2.9-2.4 6.5-3.7 14.1-5.1 17.1-6.5 16.7-7.6-0.2-0.6-3.7-1.9-7.8-2.8-19.3-4.6-20.4-5.7-8.8-10.3 14.3-5.6 16.1-6.6 14.9-8-0.5-0.7-5.9-2-11.9-3-16.8-2.7-16.9-3.3-1-10.7 6-2.8 10.9-5.5 10.9-6 0-1.3-1.5-1.7-13.2-3.2-5.8-0.8-11.2-1.7-11.8-2.1-2-1.2 0.9-3.5 11.2-8.6 9.6-4.8 12.5-7.9 7.6-7.9-5.6-0.1-21.8-1.9-22.8-2.5-1.7-1.1 0.5-3.1 7.9-7.2 9.8-5.4 13.6-8.4 12-9.4-0.8-0.5-6.3-0.9-12.4-0.9-6 0-11.6-0.4-12.3-0.8-1.6-1.1 1.2-3.7 9.3-8.7 6.7-4.2 10.5-7.4 10.5-8.8 0-0.5-4.8-0.8-11.2-0.7-6.2 0.2-12.1 0.2-13 0.1-3.1-0.2-2-2.7 2.5-5.6 8.3-5.5 15.7-11.7 15.1-12.6-0.3-0.6-5.5-0.7-13.5-0.3-15.5 0.8-15.7 0.6-4.1-8.4 4.3-3.3 8.6-7 9.7-8.2l2-2.3-8 0.7c-4.4 0.3-10.6 0.9-13.7 1.2-7.2 0.8-7.4-0.3-1.1-5.9 16.7-14.9 16.9-15.6 2.3-12.7-11.3 2.3-15 2.5-15 0.7 0-0.7 4.2-5.3 9.3-10.2 8.4-8.3 9-9 6.6-9.3-1.4-0.2-7.4 0.9-13.3 2.3-12.7 2.9-11.6 2.8-11.6 1.1 0-0.7 3.6-5.2 8-10 4.4-4.7 8-9 8-9.6 0-1.5-3-1.2-11.6 1.3-9.8 3-14.4 3.9-14.4 2.9 0-1.2 3-5.2 9.7-12.9 9.3-10.7 8.9-11.1-6.2-5.8-16.3 5.7-16.8 5-6-8 7.1-8.4 8.8-11.5 6.5-11.5-0.5 0-5.7 1.8-11.5 4-16.2 6.1-16.5 5.7-7-7.5 9.5-13.3 9-13.9-6.1-7-5.4 2.5-10.5 4.5-11.1 4.5-2.3 0-1.3-2.4 5.3-13 4.7-7.6 6.1-10.6 5-10.8-0.8-0.2-5.9 2-11.5 4.7-9.6 4.9-13.1 6-13.1 4.3 0-0.4 2.7-5.4 6-11.2 3.3-5.8 6-10.8 6-11.3 0-1.8-3.8-0.3-12.8 4.8-5.3 3-10.2 5.5-11 5.5-1.8 0-1-2.4 5-14.4 2.7-5.4 4.6-10.1 4.3-10.4-0.7-0.7-1.4-0.3-14.4 7.7-5.8 3.5-8.7 4.8-9.2 4-0.4-0.7 0.9-4.6 2.8-8.8 7.1-15.4 7.3-18 1.2-13.8-1.9 1.3-6.5 4.5-10.3 7.1-4.4 3-7.2 4.4-7.9 3.7-0.6-0.6 0.5-4.7 3.2-11.4 4.1-10.6 4.9-13.7 3.2-13.7-0.5 0-4.8 3.1-9.6 6.9-9 7.2-12.5 9-12.5 6.6 0-0.8 1.6-5.8 3.5-11.1 5.5-15.2 4.8-16.5-4.9-8.1-3.4 2.9-7.8 6.6-9.8 8.1l-3.8 2.8v-2.3c0-1.3 1.4-7.1 3-12.9 1.6-5.8 3-10.8 3-11.2 0-2.1-2.9-0.1-10.2 6.7-4.4 4.2-8.9 8-9.9 8.6-2.5 1.3-2.5-0.8 0.2-11.6 1.1-4.7 1.9-9.9 1.7-11.7l-0.3-3.3-9.3 9.5c-11.5 11.8-12.2 11.5-9.3-3.5 2.3-11.8 2.5-14.5 1.2-14.5-0.8 0-5.3 4.7-13.3 13.8-2 2.3-4.4 4.2-5.4 4.2-1.4 0-1.6-0.7-1-4.3 2-13.3 2.8-20.8 2.4-21.3-1.2-1.1-3.7 1.2-9.3 8.7-5.3 7.2-8.1 9.9-10 9.9-0.3 0-0.3-6.2 0.1-13.8 0.8-16 1.3-15.9-9.6-1.5-3.6 4.8-7.1 8.9-7.9 9.1-1.2 0.4-1.3-1.5-0.9-11.4 0.6-13.3 0.1-16.5-2.3-14.2-0.8 0.8-4.1 5.6-7.4 10.7-3.2 5-6.4 9-6.9 8.8-1.3-0.4-1.3-0.6-2.1-15-0.5-7.2-1.1-10.7-1.9-10.7-0.6 0-3.7 4.5-6.9 9.9-3.1 5.4-6.4 10.4-7.1 11-1.9 1.6-2.3 0-3.1-11.4-0.8-10.9-1.4-14.5-2.5-14.5-0.5 0-3.1 4.2-5.9 9.2-8.6 16.2-9.4 16.4-11.1 2.3-1.4-12.3-2-14.5-3.4-14.5-0.7 0-3.4 4.7-6.1 10.5-2.6 5.8-5.3 11-6 11.5-1.6 1.4-3-2.5-4.6-13-1.3-8.4-2.4-12-3.8-12-0.5 0-2.1 3-3.6 6.7-6.8 16.5-7.5 17.8-8.9 16.2-0.8-0.8-2.1-4.8-3-8.9-2.8-12.6-3.6-15-5.1-15-1.2 0-5.5 9.4-5.5 12 0 2.3-5.1 12.1-6 11.5-0.5-0.3-1.9-3.8-3.1-7.8-3.3-11.6-5-15.7-6.4-15.7-0.7 0-2.4 3.6-3.9 8.7-1.5 4.9-3.4 10.4-4.2 12.3-1.5 3.3-1.7 3.4-3 1.6-0.7-1.1-2.1-4.2-3-7-3.6-11.1-5.6-15.6-6.8-15.6-0.8 0-1.8 1.9-2.4 4.2zm59.4 29.3c50.4 5.1 93.3 17.8 136.9 40.4 33.9 17.6 61.3 37.3 89.3 64.5 64.2 62.3 102.6 140.8 112.8 230.1 2.3 20.3 2.3 59.6 0 79.8-7.1 62.8-27 118.4-60.2 168.2-11.7 17.7-29.9 40.5-32.1 40.5-0.5 0-1.4-0.4-2.2-0.9-1.1-0.7 0.2-2.9 6-10.3 28.3-35.4 50.6-74.4 64.1-112.3 8.6-24 14.5-48.6 18.5-77.5 2.7-19.6 2.4-71.9-0.5-93.8-5.2-38.2-13.7-70.1-27.4-102.1-32.8-76.9-97.5-144.8-174.8-183.6-103.1-51.7-223.2-52.7-327-2.8-25.8 12.4-47.8 26.1-69 43-92.7 74.1-142 176-142 293.8 0 86 26.7 160.9 83.1 233.1 7.1 8.9 8.8 11.8 7.8 12.5-0.8 0.5-1.7 0.9-2 0.9-2.2 0-22.5-25.4-33.3-41.8-53.6-81.4-73.1-184-53.6-281.2 6.6-32.8 15.9-59.8 31.5-91.5 19.8-40.1 40.9-69.3 72.8-101 40.6-40.2 83.5-67.5 136.8-87 29.6-10.9 59.5-17.6 95.4-21.4 13.3-1.4 53.7-1.2 69.1 0.4zm-37.4 29.5c10.6 3 12.8 18.5 3.3 24.1-3.2 1.9-3.4 2.3-2.2 3.8 1.8 1.9 12.7 23.6 12.7 25.1 0 0.5-1.8 1-4 1h-4.1l-5.4-11.2c-3-6.1-6-11.5-6.7-12-0.7-0.4-3.4-0.8-6-0.8h-4.8v12 12h-4-4v-19.3c0-10.5-0.3-22.9-0.7-27.5l-0.6-8.2h11.4c6.3 0 13.1 0.5 15.1 1zm35.5 0.8c1.1 0.7-0.5 24.1-3.3 49.9l-0.5 5.3h-4c-2.4 0-3.9-0.5-3.9-1.3 0-2.4 4.1-48.3 4.6-51.5 0.4-2.7 0.9-3.2 3.2-3.2 1.5 0 3.2 0.4 3.9 0.8zm-84.9 29.4c9.4 13.4 16.9 24.4 16.8 24.5-0.1 0.1-2 0.6-4.2 1.1l-4.1 0.9-4.1-6.2-4.2-6.2-12.3 2.6c-6.7 1.4-12.7 2.9-13.3 3.3-0.7 0.4-1.5 2.9-1.9 5.5-1.2 8.7-1.4 9-5.3 9.7-2 0.3-3.8 0.4-4 0.1-0.2-0.2 2.2-13.4 5.3-29.4 5.3-26.5 5.9-29 7.9-29.4 6.3-1.2 5.7-1.8 23.4 23.5zm151-16.7c2.8 1.3 5.2 2.6 5.2 2.9 0 1.4-2.4 5.6-3.2 5.6-0.5 0-2.6-0.9-4.8-2-5.7-2.9-11.3-2.7-13.9 0.7-2.9 3.6-2.1 5.6 5.9 13.8 3.7 3.8 7.3 8 7.9 9.2 1.8 3.6 1.3 10.4-1.2 14.8-4.4 7.8-14.8 9.8-25.8 4.9-6.1-2.8-6.6-3.5-4.9-7.9l1-2.6 4.2 2.5c5.9 3.4 10.8 4.2 14.6 2.2 3.3-1.7 4.2-3.3 4.2-7.9 0-2.5-1.3-4.3-7-9.9-8.5-8.1-10.5-12.1-9-17.9 3-11.1 13.4-14.4 26.8-8.4zm36.6 13.8c10.1 4.8 15.1 9.5 16.2 15.2 1.4 7.7-5.5 17.6-13.2 19.1-2.7 0.5-5.7-0.1-11.6-2.1-4.4-1.4-8.4-2.3-8.7-1.8-0.4 0.4-2.5 4.7-4.6 9.5-2.1 4.9-4.2 8.8-4.7 8.8-0.5 0-2.2-0.7-3.8-1.5l-3-1.5 2.6-5.8c1.4-3.1 6.4-14.4 11.1-25 4.7-10.5 9-19.2 9.5-19.2 0.6 0 5.2 1.9 10.2 4.3zm-261.6 14.4c3.8 9.8 7.6 19.9 8.6 22.5 1.5 4.2 2 4.6 3.9 3.9 1.2-0.5 6-2.3 10.5-4.1 4.7-1.8 8.8-2.8 9.2-2.4 0.5 0.5 1.1 2 1.5 3.4 0.6 2.4 0.1 2.7-13.6 7.8-7.8 3-14.5 5-14.9 4.5-1-1-19-48.5-19-50 0-1 3.8-2.9 6.2-3.2 0.4-0.1 3.8 7.9 7.6 17.6zm-37.6 23.8c6.2 11.3 11.7 20.5 12.2 20.5 0.6 0 5-2.3 9.8-5 4.8-2.8 9.2-5 9.6-5 1.3 0 3.4 5.2 2.5 6.1-0.4 0.4-4.2 2.6-8.3 4.9-4.1 2.3-9.8 5.5-12.6 7.1l-5.1 2.9-12.6-22.8c-6.9-12.5-12.9-23.5-13.2-24.4-0.5-1.2 0.2-2.1 2.2-3.2 1.5-0.8 3.1-1.5 3.5-1.6 0.3 0 5.7 9.2 12 20.5zm353.4-9.6c6.2 2.8 11.9 8.5 14.4 14.3 5.5 12.7-1.5 29.8-15.2 37.4-11.3 6.2-26.3 2.7-33.5-8-4.1-6-5.7-11.7-4.9-18 1.1-10 9-21 18.1-25.5 5.3-2.7 15.5-2.8 21.1-0.2zm-379.8 18.3c14.6 19.4 16.1 22.6 14.8 31.3-1.3 8.6-12.6 17.5-22.2 17.5-8.9 0-13.1-3.9-32-29.3l-5.3-7.2 2.5-2.3c1.4-1.2 2.9-2.2 3.4-2.2 0.5 0 5.5 6.1 11.1 13.5 12.2 16.2 15.8 19.5 21.4 19.5 7.1 0 13.5-5.9 13.5-12.5 0-3.9-4-10.8-14.4-24.5l-9.5-12.5 2.1-2.3c1.2-1.2 2.7-2.2 3.4-2.2 0.7 0 5.7 6 11.2 13.2zm219.7-4.7c24.7 2.9 50 9.1 71.5 17.5 22.6 8.8 50.8 25.2 70 40.7 10.9 8.7 32.2 29.4 41 39.8 34 40.2 56.2 91.6 63.1 146.5 1.7 13.2 1.7 50.2 0 63-3.7 27.9-9.3 50.1-19.1 74.5-5 12.6-21.4 43.5-22.5 42.3-0.1-0.1 0.2-5.3 0.7-11.3 1.7-20-0.9-38.6-6.8-49.6-3.7-6.7-18.9-26.7-37.5-49.4-28-34.2-35.2-43.8-33.6-44.7 1.6-0.8 37.1-9.6 50.4-12.4 9.6-2 9.1 0.6 3.7-19.6-6.9-25.9-21.6-61-26.6-63.5-6.9-3.5-28.7-8.4-47.8-10.8-15.5-1.9-19.9-1.9-20.6-0.1-0.6 1.6 2.4 14.1 6.7 27.4 5.1 16 3.5 21.3-4.8 16.2-3.5-2.1-6.3-7-14.4-25.3-9.2-20.8-9.9-21.2-34.9-20.3-39.7 1.4-83.7 6.1-128 13.7-18 3.1-16.2 2.1-15.5 8.7 4.3 39 14.7 74 33.1 110.6 4.1 8.2 8 15.7 8.7 16.6 1.1 1.6 2.4 1.4 19.2-2.2 19.9-4.2 41-9.5 89-22.1 49.4-13 55.3-14.3 56.7-12.9 1.1 1.1 0.1 5-5 19.8-14.4 42.4-38 90.5-67.8 138.3-4.7 7.5-9.1 14.4-9.8 15.4-1.2 1.6-2.6 1.6-17.7 0.7-47.8-2.9-97.8 0.7-145.4 10.5-17.3 3.6-32.2 7.7-55.8 15.2l-20.8 6.7-7.5-7.5c-36.8-36.2-63.8-85.7-74.9-137.4-7.6-35.5-7.8-79.5-0.5-115.5 12.8-63.2 52.4-125.7 104.3-165 37.6-28.5 87.5-48.6 134.7-54.5 15-1.8 48.7-1.8 64.5 0zm209.7 26.2c10.9 11.3 12.6 15.6 9.1 23-2.4 5.2-6.6 7.4-13.3 7.1l-5.5-0.3-0.6 3.5c-0.6 3.8-7.5 23.9-8.4 24.8-0.3 0.3-1.9-0.7-3.6-2.4l-2.9-3 4-10.8c2.2-6 4-11.7 4-12.8 0-1-1.6-3.5-3.4-5.6l-3.5-3.7-8.3 8.2c-4.6 4.6-8.7 8.3-9.1 8.3-0.4 0-1.9-1-3.2-2.3l-2.5-2.3 19.1-19.7c10.5-10.8 19.4-19.7 19.8-19.7 0.4 0 4.1 3.5 8.3 7.7zm-488.8 17.5c0.4 6.2 0.9 14.2 1.2 17.8l0.6 6.5 15.7-0.3c8.6-0.2 17.4-0.2 19.5 0l4 0.3-3.3 3.7-3.3 3.8h-18.2l-18.1 0.1 9.8 9.2 9.8 9.3-2.9 2.7-2.9 2.8-20.2-18.1c-11-10-20.1-18.5-20.1-18.9 0-0.4 1.1-1.8 2.5-3.1 2.8-2.6 1.6-3.2 12.4 6.3 3.6 3.1 6.7 5.7 7 5.7 0.3 0 0.2-7.2-0.3-15.9l-0.8-15.9 2.7-3.6c1.5-2 3.1-3.6 3.5-3.6 0.4 0 1 5.1 1.4 11.2zm538.1 41.3c1.1 1.9 1.7 3.6 1.5 3.8-0.3 0.2-2.3 1.4-4.5 2.7-2.2 1.3-6.5 4-9.5 5.9l-5.4 3.4 16.2 3.7c8.9 2 16.3 3.8 16.5 4.1 2.6 3.3 4.8 7.1 4.3 7.6-0.3 0.3-8.1-1.1-17.2-3.1-9.1-2.1-16.9-3.4-17.4-3-0.4 0.5-2.2 6.7-3.9 13.9-1.7 7.1-3.9 15.4-4.7 18.4l-1.6 5.4-3-4.6-3-4.7 4.2-15.2c2.3-8.4 4.5-16.2 4.8-17.2 0.7-2.6-0.6-2.1-12.4 5.4-10.1 6.4-9.8 6.3-12.5 1.6-0.8-1.3-0.8-2.1 0-2.9 1.2-1.2 44.3-28.5 45.2-28.6 0.3-0.1 1.4 1.5 2.4 3.4zm-560.2 7.8c12 5.5 19.3 15.9 18.5 26.5-0.7 10.5-8.4 21.3-17.5 24.8-9.1 3.5-21.4 0.2-30.2-8.1-6.6-6.2-9.1-11.4-9.1-19.3 0-7.6 2.7-14 8.6-19.8 7.6-7.7 18.6-9.2 29.7-4.1zm590.7 47.3c0.7 1.9 1 3.6 0.8 3.8-0.1 0.1-7.3 2.9-15.8 6.2-21.4 8.2-27 12.8-25.4 21.1 0.4 2 2.1 5.2 3.9 7.2 5 5.4 9.9 5 29.9-2.8 8.7-3.3 16.4-6.1 17-6.1 1.8 0 3.9 6.2 2.3 7.2-3.7 2.3-33.7 13-37.8 13.5-9.8 1.2-18-4.5-21.4-14.7-3.2-9.6-0.9-17.6 6.9-23.5 2.6-2 35-15.2 37.8-15.4 0.3-0.1 1.2 1.5 1.8 3.5zm-639.6 35.8c4 1.7 7.6 6 7.6 9.2 0 2.6 0.7 2.9 4.3 1.5 3.1-1.2 25.8-5.3 26.4-4.8 0.2 0.2-0.2 2.1-0.9 4.3-1.4 4.2-1.8 4.4-15.8 6.4-4.1 0.6-8.4 1.7-9.7 2.5-2.1 1.4-5.2 8.9-4.1 10 0.3 0.3 5.4 2 11.4 3.7 6 1.6 11 3.1 11.1 3.2 0.1 0.1-0.2 1.9-0.8 4-0.8 2.8-1.4 3.6-2.7 3.2-2.8-0.8-22.8-6.1-36.2-9.7-6.9-1.8-13.1-3.8-13.8-4.4-1.1-1-0.9-2.7 0.8-9.5 2.6-10.2 4.9-14.9 9-18.4 3.6-3 8.2-3.4 13.4-1.2zm660.1 27.2c0.7 3.8-0.3 5.3-3.5 5.4-1.8 0-42.2 7.9-42.6 8.3-0.1 0.1 0.7 5.1 1.8 11 1.1 5.9 1.9 10.9 1.7 11.1-0.2 0.2-1.8 0.7-3.5 1l-3.1 0.7-2.8-14.3c-1.5-7.9-2.8-14.7-2.8-15.2-0.1-0.6 1.6-1.4 3.8-1.9 7.5-1.6 48-9.5 49.1-9.6 0.7-0.1 1.5 1.5 1.9 3.5zm-634.7 28.6l-0.3 4.2-6.5 1.9c-3.6 1.1-6.8 2.4-7.2 3-0.5 0.8-2 17.5-2.3 25.1 0 0.5 2.8 2.5 6.3 4.3 6 3.4 6.2 3.6 6.2 7.4 0 2.1-0.3 3.9-0.7 3.9-0.4 0-12.3-6.2-26.5-13.7l-25.8-13.8v-3.6c0-2 0.6-4.1 1.3-4.7 1.2-1 52.2-18 54.5-18.1 0.9-0.1 1.2 1.1 1 4.1zm641.6 17.4c0.3 0.9 0.6 2.6 0.6 3.8 0 2.3-0.2 2.3-17.4 3-25.3 1-30 2.8-31.3 12.3-0.7 5.3 1.7 10.7 5.9 13 2.9 1.6 5.5 1.8 23.6 1.5l20.3-0.3-0.3 3.8-0.3 3.8-11.5 0.8c-18.4 1.3-29.9 0.5-35.1-2.4-5.6-3.1-8.6-7.7-9.4-14.4-1.4-10.9 1.7-18.1 9.5-22.5 4.7-2.6 13-3.5 35.1-3.8 8-0.2 9.8 0.1 10.3 1.4zm12.6 13c0 3.5-0.1 3.5-3.7 3.2-2.7-0.2-3.9-0.8-4.1-2.1-0.7-3.3 0.6-4.7 4.3-4.7 3.3 0 3.5 0.2 3.5 3.6zm1 12.9c0 3.4-0.1 3.5-4 3.5-3.9 0-4-0.1-4-3.5 0-3.4 0.1-3.5 4-3.5 3.9 0 4 0.1 4 3.5zm-665 14.3c7.1 3.5 11 14 9 23.9-0.9 4.1-1.6 5.3-3 5.3-4.5 0-4.9-0.8-4.3-8.3 0.5-6.8 0.4-7.4-2.2-10.5-2.9-3.4-6.8-4.2-10.6-2.1-1.1 0.6-4 5.3-6.4 10.4-4.9 10.6-8.1 13.5-15 13.5-9.5 0-15.5-7.2-15.5-18.6 0-8.3 0.5-9.4 4.5-9.4h3.4l-0.6 6.9c-0.6 6.8-0.5 7.1 2.5 10 1.7 1.7 3.8 3.1 4.7 3.1 2.5 0 6.9-5.2 9-10.7 2.8-7.4 5.6-11.1 10-13.3 4.9-2.5 9.9-2.5 14.5-0.2zm617.5 19.7c8.8 1.4 19.2 3 23 3.6 11.2 1.7 10.8 1.4 10.2 6.8-0.3 2.5-1.3 8-2.3 12.1-1.4 6.2-2.3 8.2-5.5 11.4-3.7 3.6-4.2 3.8-8.9 3.4-6.1-0.6-9.7-2.9-11.6-7.4l-1.4-3.4-3.3 3.6c-2.8 3.1-4.1 3.7-8.3 4.1-9.6 0.8-15.4-5-15.4-15.5 0-5 1.6-18.1 2.5-21 0.3-0.7 1.4-1 2.7-0.7 1.3 0.2 9.5 1.6 18.3 3zm-605.4 24.3c0.4 1.8 0.3 3.4 0 3.7-0.4 0.2-7.4 1.6-15.7 3-8.2 1.4-20 3.5-26.2 4.6-6.3 1.1-11.6 1.8-11.8 1.6-0.3-0.3-0.7-2-1.1-4l-0.5-3.5 9.3-1.7c5.2-0.9 16.4-2.9 24.9-4.5 19.4-3.5 20.2-3.5 21.1 0.8zm-59.7 9.8c0.8 3.2 0 4.2-4 5-2.9 0.5-3.2 0.3-3.8-2.6-0.8-4.2-0.2-5 3.9-5 2.7 0 3.4 0.4 3.9 2.6zm64.3 12.2l1 3.9-11.6 3.8c-6.4 2-11.7 3.8-11.8 3.9-0.3 0.3 7.3 23.6 7.9 24.2 0.3 0.3 5.6-1.1 11.8-3.1 6.3-2.1 11.6-3.3 12.1-2.8 0.5 0.5 1.1 2.2 1.4 3.8l0.6 3-25.7 8.3c-14.2 4.6-26 8-26.5 7.5-0.5-0.5-1.1-2.2-1.5-3.9l-0.6-3 10.7-3.4c8.1-2.6 10.5-3.8 10.2-5-0.2-0.8-1.9-6.4-3.8-12.3-3.9-12.4-2.2-11.7-16.6-7l-9.2 3.1-1.2-3.5c-0.6-1.9-0.8-3.7-0.4-4.1 0.7-0.7 49.2-16.9 51.1-17.1 0.6-0.1 1.6 1.6 2.1 3.7zm607.3 10.1c9.1 2.9 16.7 5.5 16.8 5.6 0.7 0.6-1.9 7.5-2.8 7.5-0.5 0-1.9-0.4-3.2-1-1.3-0.5-9-3-17.1-5.6-11.9-3.7-15.8-4.5-19.5-4.1-5.9 0.6-9.8 4.6-10.7 11-1.4 9.4 3.3 12.9 28.3 20.7l14.3 4.5-0.6 3c-0.3 1.6-1 3.4-1.5 3.9-1.3 1.3-34.5-9.8-39.5-13.2-6.2-4.3-8.5-8.5-8.5-15.4 0-6.3 1.7-11.4 5.5-16.3 6.2-8.2 14.3-8.4 38.5-0.6zm-148.3 18.5c4.6 2.4 26.1 21.6 33.7 30.2 8.5 9.5 18.6 23.4 18.6 25.5 0 3.4-31.9 39.9-34.9 39.9-0.4 0-8.2-2.5-17.4-5.5-9.2-3-23.5-7.3-31.8-9.5-8.3-2.1-15.4-4.1-15.6-4.4-0.3-0.3 3.8-8.7 9.2-18.7 5.3-9.9 14.1-27.1 19.6-38.2 5.4-11 10.4-20.4 11.1-20.8q2.1-1.4 7.5 1.5zm170.8 0.8c2.3 1 2.6 1.6 2.1 4.2-0.8 3.9-0.9 4-5 2.6-4-1.3-4.1-1.7-2.4-5.5 1.3-2.9 1.7-3 5.3-1.3zm-2.6 12.7c0.9 0.6 1.1 1.8 0.6 4.1-0.7 3-0.9 3.2-4.3 2.5-4.7-0.9-4.7-0.9-3.2-4.5 1.3-3.1 4-3.9 6.9-2.1zm-358.9-452.9v8h5.5c9.5 0 14.2-4.3 11.9-10.9-1.3-3.5-4.8-5.1-11.6-5.1h-5.8zm-54.4 12.1c-1 6.3-2 12.6-2.3 14l-0.5 2.6 9.4-2c5.1-1 9.7-2.3 10.2-2.7 0.8-0.8-7.1-13.4-12.7-20.4l-2.3-2.8zm202.5 8.1c-0.5 1.3-2.3 5.3-3.9 9l-3 6.6 5 2.1c7 2.9 10.3 2.7 13.9-0.8 5.5-5.5 3-12-6.2-16.7l-4.9-2.4zm47.1 28c-7.6 2.6-15.3 12.4-16.8 21.4-1.9 12.4 12.1 23 24.1 18 7.4-3.1 15.5-15.4 15.5-23.4-0.1-10.7-12.5-19.4-22.8-16zm-174.2 39c-9 1-19.5 6.4-25.4 12.8-10 11.2-11.1 28.7-2.8 45.3 8.3 17 37 38.7 64.2 48.7 14 5.2 22.6 7 36 7.6 21.7 1.1 35.3-2.5 42.9-11.1 4.7-5.4 6.3-10 6.2-18.4-0.2-26.2-23.7-54.4-61.1-73.1-18.8-9.4-41.7-13.9-60-11.8zm224.7 2.6c-3.1 3.3-5.7 6.3-5.7 6.5 0 0.3 2.3 2.4 5.1 4.6 5.9 4.7 10.2 5.3 13.7 2.1 3.9-3.6 3-8.3-2.6-14.2l-4.7-5zm-519.2 66c-10.5 6.6-12.1 18.1-3.8 27.3 6.4 7 16.3 10.8 23.4 8.9 11.8-3.2 16.6-16.3 9.7-26.6-4.8-7-11.3-10.8-19.7-11.2-5.2-0.2-7.3 0.1-9.6 1.6zm-37.2 84.7c-2 1.4-5.3 9.6-5.3 13 0 0.7 2.8 2 6.3 2.9 3.4 1 6.9 1.9 7.8 2.2 2.2 0.6 4.5-10.8 3-14.8-1.8-4.7-7.6-6.3-11.8-3.3zm0.7 61.1c-6.3 2-11.8 3.9-12.2 4.3-0.4 0.3 4.8 3.4 11.5 6.8 6.7 3.4 12.3 5.8 12.4 5.5 0.2-0.4 0.7-5.1 1.1-10.5q0.8-9.8-0.3-9.6c-0.5 0-6.2 1.6-12.5 3.5zm626.6 71.6c-1.1 4.3-0.6 12.3 0.9 14.5 0.9 1.2 3.1 2.5 5 2.9 6.2 1.1 10.6-3.5 12-12.7l0.7-4.7-6.4-1.1c-9.6-1.6-11.5-1.5-12.2 1.1zm24.9 1.7c-0.3 0.2-0.5 3.5-0.5 7.3 0 6 0.3 7.2 2.5 9.3 3 3.1 7.3 3.2 10.3 0.5 2.4-2.3 4.5-8.8 4-12.8-0.3-2.6-0.7-2.7-8.1-3.8-4.2-0.6-8-0.8-8.2-0.5zm-279 176.6c-13.5 3.5-21.4 22.9-19.4 47.5 1.2 15.1 9.3 24 21.9 24 15.3 0 25.3-15.9 25.3-40.5 0.1-15.6-3.4-24.2-11.5-28.8-5.5-3.2-10.1-3.8-16.3-2.2zm11.3 9.1c4.6 3.2 5.7 7 5.7 19.9 0 16.9-3.4 28.5-9.7 33-6.2 4.3-13.6-0.2-15.8-9.6-1.7-7.1-0.8-22.7 1.9-31.1 3.7-11.7 11.3-16.9 17.9-12.2zm-114.2-8.1c-9 3.2-13.7 11.8-14.4 26.4-1 20.4 5.3 37.1 16.2 42.8 3.4 1.8 12 2 16.8 0.4 4.5-1.5 9.1-6.4 12-12.6 1.9-4.3 2.2-6.7 2.2-16.5 0-16.3-2.9-27-9.5-34.5-6.1-6.9-14.7-9.1-23.3-6zm14.6 10.7c1.5 1.8 3.8 6.2 5 9.8 2 5.5 2.3 8.5 2.3 20 0 15.3-1.1 18.6-7.2 21.5-2.8 1.4-3.7 1.4-6.6 0.2-7.9-3.3-12.1-14.8-12-32.7 0-12.8 1.3-17.3 6-21 3.9-3 8.9-2.1 12.5 2.2zm185 7.9c-5.9 1.1-9.8 4.2-11.8 9.4-2.2 5.9-1.4 11.6 2.4 16.9l3 4.1-5.8 1.8c-6.6 1.9-11.3 6.4-12.9 12.4-1.5 5.2-1.3 7.2 0.8 11.8 4.3 9.3 14.2 14.9 26.1 15 8.7 0 12.6-1.8 16.5-7.7 4.9-7.3 4.5-15.9-0.9-22.9l-3.3-4.4 6.1-3c8.1-4 10.9-8.1 10.4-15.1-0.3-3.2-1.3-6.3-2.7-8.3-5.3-7.4-17.7-11.9-27.9-10zm13.1 9.3c9.8 4.1 9.6 14.1-0.4 19.2-2.7 1.3-5.3 2.4-5.9 2.4-0.5 0-3-2.6-5.5-5.8-5.2-6.6-5.9-10.6-2.2-13.9 3.9-3.6 8.6-4.2 14-1.9zm-7 32.5c6.9 7.4 7.4 12.6 1.7 18.2-5.1 5.1-14.7 3.7-20.4-3.1-6.8-8.1 0.1-18.7 13-19.9 0.6-0.1 3.2 2.1 5.7 4.8zm-306.6-38.4c-4.5 1.7-14.7 8.3-14.7 9.6 0 0.6 0.7 2.3 1.5 4l1.6 2.9 5.9-4.2c5-3.5 6.9-4.2 12-4.6 5.7-0.4 6.1-0.3 9.5 3.1 3.2 3.2 3.5 4 3.5 9 0 7-3.9 17.4-12 31.8-3.3 5.9-6 11.9-6 13.2 0 3.4 2 8.7 3.3 8.7 1.8 0 39.1-12.1 40.1-13 1-1-1.2-8.2-2.4-7.5-1.5 0.9-29.4 9.4-29.8 9-0.2-0.2 1.1-3 3-6.2 6.1-10.4 10.9-21.5 13-29.5 1.7-6.9 1.8-8.6 0.8-13-1.4-5.8-5.9-11.5-10.7-13.4-4.1-1.8-13.7-1.7-18.6 0.1zm140.8 66.6c-74 4.6-137.3 24.9-195.7 62.6-3.8 2.4-6.8 4.8-6.8 5.4 0 0.5 1.6 3.1 3.6 5.8l3.6 4.8 8.7-5.6c26.3-17.4 60-32.9 94.1-43.4 53.6-16.6 113-21.1 171.5-13.1 39.6 5.4 79.8 17.7 117 35.9 14.3 7 40.4 22.1 43.4 25 1.2 1.2 2 0.7 5.3-3.5 2.1-2.6 3.8-5.3 3.8-5.8 0-1.9-24.1-16.4-42.5-25.8-50.8-25.7-100.2-38.6-162.5-42.4-18.3-1.1-24.4-1.1-43.5 0.1z"/></svg>